<svg xmlns="http://www.w3.org/2000/svg" width="104" height="104" viewBox="0 0 26 26" style="fill: rgb(255, 255, 255);">
    <path d="M 13 0.15625 C 5.904 0.15625 0.15625 5.904 0.15625 13 C 0.15625 20.096 5.904 25.84375 13 25.84375 C 20.096 25.84375 25.84375 20.096 25.84375 13 C 25.84375 5.904 20.096 0.15625 13 0.15625 z M 11.96875 3 C 12.009496 2.99585 12.052863 3.0036597 12.09375 3 L 12.09375 3.5 A 0.90625 0.90625 0 0 0 13.90625 3.5 L 13.90625 3 C 18.727786 3.4315627 22.568437 7.2722137 23 12.09375 L 22.5 12.09375 A 0.89508948 0.89508948 0 0 0 22.40625 12.09375 A 0.90746147 0.90746147 0 1 0 22.5 13.90625 L 23 13.90625 C 22.568437 18.727786 18.727786 22.568437 13.90625 23 L 13.90625 22.5 A 0.89508948 0.89508948 0 0 0 12.90625 21.59375 A 0.89508948 0.89508948 0 0 0 12.09375 22.5 L 12.09375 23 C 7.2722137 22.568437 3.4315627 18.727786 3 13.90625 L 3.5 13.90625 A 0.90625 0.90625 0 0 0 3.5 12.09375 L 3 12.09375 C 3.427903 7.3131004 7.2045937 3.4852325 11.96875 3 z M 13 5.4375 C 12.508 5.4375 12.29725 5.875 12.28125 6.125 L 12 11.40625 C 11.463196 11.740735 11.09375 12.320605 11.09375 13 C 11.09375 14.047 11.953 14.90625 13 14.90625 C 13.054826 14.90625 13.102609 14.879557 13.15625 14.875 L 17.40625 18.6875 C 17.60225 18.8585 18.1075 19.0175 18.5625 18.5625 C 19.0185 18.1075 18.88775 17.572 18.71875 17.375 L 14.90625 13.03125 C 14.906424 13.02068 14.90625 13.010611 14.90625 13 C 14.90625 12.295585 14.50755 11.701613 13.9375 11.375 L 13.71875 6.125 C 13.70575 5.875 13.49 5.4375 13 5.4375 z"/>
</svg>